<svg width="70" height="70" viewBox="0 0 70 70" fill="none" xmlns="http://www.w3.org/2000/svg">
<path fill-rule="evenodd" clip-rule="evenodd" d="M27.3794 43.9807C34.8743 29.9935 37.8837 29.6756 38.4513 31.2649V34.4441C48.6071 33.6543 51.1942 41.4966 49.5553 44.7148L49.5235 44.7755C52.9302 46.3651 52.0785 47.9544 51.2269 49.544C49.1829 53.3587 39.587 53.7827 35.0446 53.5176C16.3073 51.1335 11.1971 58.2861 11.1972 63.8493C63.6495 67.7965 65.6807 54.4921 66.5402 48.8618C66.5461 48.8238 66.5516 48.7865 66.5575 48.7492C69.2828 29.6756 57.1888 25.7018 56.3372 26.4966L57.1888 5.83334C46.2869 5.83334 45.2649 12.1913 45.2649 13.7807C24.1429 13.7807 21.4175 20.1387 20.5658 25.7018H6.08698C6.08698 41.5966 12.9005 43.1862 18.8624 43.9807H27.3794ZM33.3413 25.7018C33.3413 27.0186 32.1974 28.086 30.7863 28.086C29.3749 28.086 28.2311 27.0186 28.2311 25.7018C28.2311 24.3851 29.3749 23.3176 30.7863 23.3176C32.1974 23.3176 33.3413 24.3851 33.3413 25.7018ZM46.9682 43.9807C46.9682 44.8586 46.2058 45.5703 45.2649 45.5703C44.3243 45.5703 43.5616 44.8586 43.5616 43.9807C43.5616 43.1031 44.3243 42.3914 45.2649 42.3914C46.2058 42.3914 46.9682 43.1031 46.9682 43.9807Z" fill="#FFF0C0"/>
</svg>
